<svg width="52" height="52" viewBox="0 0 52 52" fill="none" xmlns="http://www.w3.org/2000/svg">
<path d="M26 4.33334C14.0338 4.33334 4.33334 14.0338 4.33334 26C4.33334 37.9661 14.0338 47.6667 26 47.6667C37.9661 47.6667 47.6667 37.9661 47.6667 26C47.6667 14.0338 37.9661 4.33334 26 4.33334Z" stroke="#F87666" stroke-width="1.5" stroke-linecap="round" stroke-linejoin="round"/>
<path d="M9.25383 39.749C9.25383 39.749 14.0834 33.5833 26 33.5833C37.9167 33.5833 42.7464 39.749 42.7464 39.749" stroke="#F87666" stroke-width="1.5" stroke-linecap="round" stroke-linejoin="round"/>
<path d="M26 26C29.59 26 32.5 23.09 32.5 19.5C32.5 15.9102 29.59 13 26 13C22.4101 13 19.5 15.9102 19.5 19.5C19.5 23.09 22.4101 26 26 26Z" stroke="#F87666" stroke-width="1.5" stroke-linecap="round" stroke-linejoin="round"/>
</svg>
