<svg width="40" height="40" viewBox="0 0 40 40" fill="none" xmlns="http://www.w3.org/2000/svg">
<rect width="40" height="40" rx="20" fill="#121BFF"/>
<path d="M32.125 20.0791C32.125 25.7228 28.2708 30.4662 23.0508 31.8189V24.8742H25.1088H25.9673L26.0973 24.0256L26.6785 20.2305L26.8549 19.0791H25.69H23.0502V17.6182C23.0502 17.244 23.1436 16.9976 23.265 16.8572C23.3631 16.7439 23.5919 16.5674 24.1895 16.5674H25.8453H26.8453V15.5674V12.3371V11.4935L26.0137 11.3514L25.8453 12.3371C26.0137 11.3514 26.0136 11.3514 26.0135 11.3514L26.0133 11.3513L26.0128 11.3512L26.0114 11.351L26.0069 11.3502L25.9914 11.3477L25.9359 11.3386C25.8882 11.331 25.8199 11.3204 25.7339 11.3077C25.5621 11.2824 25.319 11.2489 25.0294 11.2154C24.4547 11.149 23.6782 11.0805 22.9068 11.0805C21.2058 11.0805 19.689 11.6001 18.5964 12.6939C17.5028 13.7888 16.9492 15.3434 16.9492 17.1875V19.0791H14.6158H13.6158V20.0791V23.8742V24.8742H14.6158H16.9492V31.8176C11.7291 30.4645 7.875 25.721 7.875 20.0791C7.875 13.3833 13.3042 7.9541 20 7.9541C26.6958 7.9541 32.125 13.3833 32.125 20.0791Z" fill="#121BFF" stroke="white" stroke-width="2"/>
</svg>
