<svg width="40" height="40" viewBox="0 0 40 40" fill="none" xmlns="http://www.w3.org/2000/svg">
<rect width="40" height="40" rx="20" fill="url(#paint0_radial_166_875)"/>
<rect width="40" height="40" rx="20" fill="url(#paint1_radial_166_875)"/>
<path d="M25.4686 9.0623C26.9177 9.06663 28.3063 9.64423 29.331 10.669C30.3558 11.6937 30.9334 13.0823 30.9377 14.5314V25.4686C30.9334 26.9177 30.3558 28.3063 29.331 29.331C28.3063 30.3558 26.9177 30.9334 25.4686 30.9377H14.5314C13.0823 30.9334 11.6937 30.3558 10.669 29.331C9.64423 28.3063 9.06663 26.9177 9.0623 25.4686V14.5314C9.06663 13.0823 9.64423 11.6937 10.669 10.669C11.6937 9.64423 13.0823 9.06663 14.5314 9.0623H25.4686ZM25.4686 6.875H14.5314C10.3203 6.875 6.875 10.3203 6.875 14.5314V25.4686C6.875 29.6797 10.3203 33.125 14.5314 33.125H25.4686C29.6797 33.125 33.125 29.6797 33.125 25.4686V14.5314C33.125 10.3203 29.6797 6.875 25.4686 6.875Z" fill="white"/>
<path d="M27.1092 14.5314C26.7847 14.5314 26.4675 14.4352 26.1977 14.2549C25.9279 14.0747 25.7176 13.8184 25.5934 13.5186C25.4693 13.2189 25.4368 12.889 25.5001 12.5707C25.5634 12.2525 25.7196 11.9602 25.9491 11.7307C26.1785 11.5013 26.4709 11.345 26.7891 11.2817C27.1074 11.2184 27.4372 11.2509 27.737 11.3751C28.0368 11.4992 28.293 11.7095 28.4733 11.9793C28.6536 12.2491 28.7498 12.5663 28.7498 12.8908C28.7503 13.1064 28.7081 13.3199 28.6259 13.5192C28.5436 13.7185 28.4227 13.8995 28.2703 14.0519C28.1179 14.2044 27.9368 14.3252 27.7376 14.4075C27.5383 14.4898 27.3248 14.5319 27.1092 14.5314ZM20 15.6248C20.8653 15.6248 21.7112 15.8814 22.4307 16.3621C23.1502 16.8429 23.711 17.5262 24.0422 18.3257C24.3733 19.1251 24.4599 20.0048 24.2911 20.8535C24.1223 21.7023 23.7056 22.4818 23.0937 23.0937C22.4818 23.7056 21.7023 24.1223 20.8536 24.2911C20.0049 24.4599 19.1251 24.3733 18.3257 24.0421C17.5262 23.711 16.8429 23.1502 16.3622 22.4307C15.8814 21.7112 15.6248 20.8653 15.6248 20C15.626 18.84 16.0874 17.7279 16.9076 16.9076C17.7279 16.0874 18.84 15.626 20 15.6248ZM20 13.4375C18.7021 13.4375 17.4333 13.8224 16.3541 14.5435C15.2749 15.2646 14.4337 16.2895 13.937 17.4886C13.4403 18.6878 13.3104 20.0073 13.5636 21.2803C13.8168 22.5533 14.4418 23.7226 15.3596 24.6404C16.2774 25.5582 17.4467 26.1832 18.7197 26.4364C19.9927 26.6896 21.3122 26.5596 22.5114 26.0629C23.7105 25.5662 24.7354 24.7251 25.4565 23.6459C26.1776 22.5667 26.5625 21.2979 26.5625 20C26.5625 18.2595 25.8711 16.5903 24.6404 15.3596C23.4097 14.1289 21.7405 13.4375 20 13.4375Z" fill="white"/>
<defs>
<radialGradient id="paint0_radial_166_875" cx="0" cy="0" r="1" gradientUnits="userSpaceOnUse" gradientTransform="translate(36.5 45) rotate(-125.838) scale(55.509)">
<stop offset="0.24" stop-color="#FF1B90"/>
<stop offset="0.44" stop-color="#F80261"/>
<stop offset="0.69" stop-color="#F30191"/>
<stop offset="0.78" stop-color="#C500E9"/>
<stop offset="0.89" stop-color="#7017FF"/>
</radialGradient>
<radialGradient id="paint1_radial_166_875" cx="0" cy="0" r="1" gradientUnits="userSpaceOnUse" gradientTransform="translate(10 36) rotate(-45.9094) scale(22.2767)">
<stop stop-color="#FFD600"/>
<stop offset="0.48" stop-color="#FF6930"/>
<stop offset="0.73" stop-color="#FE3B36"/>
<stop offset="1" stop-color="#FE3B36" stop-opacity="0"/>
</radialGradient>
</defs>
</svg>
