<svg width="40" height="40" viewBox="0 0 40 40" fill="none" xmlns="http://www.w3.org/2000/svg">
<rect width="40" height="40" rx="20" fill="#00D24E"/>
<path fill-rule="evenodd" clip-rule="evenodd" d="M29.3006 10.6895C28.0871 9.47543 26.6456 8.5134 25.0588 7.85876C23.4721 7.20411 21.7715 6.86978 20.0551 6.875C12.8516 6.875 6.9875 12.7098 6.98457 19.8828C6.98138 22.1669 7.58345 24.411 8.72949 26.3867L6.875 33.125L13.8037 31.3162C15.7216 32.3552 17.8686 32.899 20.0498 32.8982H20.0551C27.258 32.8982 33.1215 27.0629 33.125 19.8904C33.1294 18.1798 32.7935 16.4854 32.1369 14.9058C31.4804 13.3262 30.5162 11.893 29.3006 10.6895ZM20.0551 30.7027H20.0504C18.1059 30.7033 16.1967 30.1829 14.5215 29.1957L14.1248 28.9613L10.0133 30.0348L11.1107 26.0451L10.8523 25.635C9.76507 23.9136 9.18901 21.9188 9.19121 19.8828C9.19121 13.9221 14.0668 9.07226 20.0592 9.07226C22.9338 9.06713 25.6927 10.204 27.7292 12.2329C29.7656 14.2617 30.9128 17.0164 30.9184 19.891C30.916 25.8523 26.0428 30.7027 20.0551 30.7027ZM26.0135 22.6057C25.6871 22.4428 24.0799 21.6564 23.7822 21.548C23.4846 21.4396 23.2648 21.3852 23.0475 21.7109C22.8301 22.0367 22.2037 22.7656 22.0133 22.9854C21.8229 23.2051 21.6324 23.2291 21.3061 23.0662C20.9797 22.9033 19.9268 22.5605 18.6793 21.4531C17.7084 20.5912 17.0533 19.5271 16.8629 19.202C16.6725 18.8768 16.8424 18.7004 17.0059 18.5387C17.1529 18.3928 17.3322 18.159 17.4957 17.9691C17.6592 17.7793 17.7137 17.6434 17.8221 17.4266C17.9305 17.2098 17.8766 17.0199 17.7951 16.8576C17.7137 16.6953 17.0604 15.0951 16.7885 14.4441C16.523 13.8102 16.2541 13.8963 16.0537 13.8863C15.8633 13.877 15.6436 13.8746 15.4273 13.8746C15.2621 13.8789 15.0994 13.9172 14.9496 13.9872C14.7998 14.0572 14.666 14.1573 14.5566 14.2812C14.2572 14.607 13.4135 15.3945 13.4135 16.993C13.4135 18.5914 14.5854 20.1383 14.7471 20.3551C14.9088 20.5719 17.0498 23.8549 20.3258 25.2629C20.9341 25.5234 21.5557 25.7518 22.1879 25.9473C22.9701 26.1945 23.682 26.16 24.2445 26.0762C24.8721 25.983 26.1781 25.2898 26.4494 24.5305C26.7207 23.7711 26.7213 23.1207 26.6398 22.9854C26.5584 22.85 26.3404 22.768 26.0135 22.6057Z" fill="white"/>
</svg>
